<svg width="128" height="128" viewBox="0 0 30 32" fill="none" xmlns="http://www.w3.org/2000/svg">
<path d="M27.3769 6.66672L16.4707 0.486541C15.3229 -0.163482 13.9097 -0.163482 12.7619 0.486541L1.85564 6.66672C0.707872 7.31675 0 8.51755 0 9.82008V22.1804C0 23.4805 0.707872 24.6838 1.85564 25.3338L12.7619 31.514C13.9097 32.164 15.3229 32.164 16.4707 31.514L27.3769 25.3338C28.5247 24.6838 29.2326 23.483 29.2326 22.1804V9.82008C29.2326 8.52004 28.5247 7.31675 27.3769 6.66672ZM20.9859 13.482C20.9859 14.0676 20.5713 13.9559 20.326 13.8393L20.1491 13.7401L17.7777 12.4103L15.2369 10.9886C14.792 10.8125 14.2965 10.8199 13.8591 11.011L11.8164 12.1572C11.8164 12.1572 11.3841 12.4276 11.8164 12.6683L14.5695 14.209L17.7726 16.0052L20.1617 17.3425C20.6395 17.6129 20.948 18.0992 20.9833 18.6376V20.4487C20.9783 20.9796 20.7179 21.4783 20.2805 21.7909L17.7752 23.1927L15.4923 24.4729C14.9336 24.8128 14.2282 24.8128 13.6695 24.4729V24.4828L11.3664 23.1927L8.87115 21.7959C8.4262 21.4808 8.16075 20.9722 8.16075 20.4338V18.3671C8.18098 18.1488 8.27957 17.8685 8.69671 18.1017L11.3664 19.5977L13.7732 20.9474C14.2763 21.1955 14.8678 21.1955 15.3709 20.9474L15.4721 20.8928C15.5201 20.8655 15.5681 20.8357 15.6136 20.8035V20.8159L17.2468 19.9004C17.2519 19.8855 17.2746 19.8657 17.3176 19.8409C17.6564 19.6498 17.4617 19.4439 17.3631 19.3645L14.5771 17.804L11.3664 16.0102L8.96722 14.6655H8.97228C8.53239 14.4149 8.23407 13.9807 8.1557 13.487V11.5022C8.17845 10.9986 8.43126 10.5296 8.84334 10.2294L11.3613 8.81776L13.6569 7.53011L13.7428 7.48297C14.294 7.2051 14.9487 7.22495 15.4822 7.53011L17.7777 8.81527L20.2603 10.2071C20.7204 10.5222 20.9909 11.0407 20.9833 11.5915V13.4796L20.9859 13.482Z" fill="#0D065F"/>
</svg>
